<?xml version="1.0" encoding="UTF-8" standalone="no"?>
<!DOCTYPE svg PUBLIC "-//W3C//DTD SVG 1.1//EN" "http://www.w3.org/Graphics/SVG/1.1/DTD/svg11.dtd">
<svg width="100%" height="100%" viewBox="0 0 1325 1325" version="1.1" xmlns="http://www.w3.org/2000/svg" xmlns:xlink="http://www.w3.org/1999/xlink" xml:space="preserve" xmlns:serif="http://www.serif.com/" style="fill-rule:evenodd;clip-rule:evenodd;stroke-linejoin:round;stroke-miterlimit:2;">
    <g>
        <g id="Objects">
            <g>
                <path d="M980.115,940.53C977.848,937.415 975.398,934.38 972.681,931.661C962.972,921.876 950.46,915.168 937.347,911.251C919.572,905.949 900.53,906.262 882.42,909.506C870.463,911.626 858.476,914.992 847.116,918.49C818.285,927.551 742.569,951.348 714.746,960.107C683.293,969.552 647.102,984.682 616.011,970.112C606.7,965.647 599.166,958.193 596.117,948.196C591.251,932.326 595.844,913.587 605.297,899.909C612.448,889.682 625.422,874.735 654.495,853.085C708.125,813.149 804.578,766.338 901.816,668.511C939.114,630.986 968.775,585.702 991.05,537.486C1015.868,483.692 1030.298,422.254 1016.219,363.192C1010.33,337.868 998.972,315.837 983.765,297.394C996.329,269.218 1001.722,230.667 998.943,199.62C998.407,193.634 990.709,191.591 987.171,196.45C968.473,222.131 938.921,239.849 907.418,244.021C867.934,229.261 823.1,226.748 781.473,238.18C747.314,247.511 716.493,267.175 689.905,289.944C679.192,299.097 669.032,308.94 659.296,319.088C650.83,310.283 642.002,301.784 632.716,293.813C608.584,273.052 581.053,255.157 550.902,244.378C509.54,229.961 463.002,229.99 421.386,243.827C386.277,242.243 352.495,223.446 331.981,195.008C328.465,190.133 320.757,192.142 320.195,198.126C317.085,231.235 323.237,272.922 337.533,301.478C318.795,325.577 307.82,355.492 304.759,385.704C300.17,429.927 310.316,474.304 327.127,514.958C331.255,525.328 336.798,535.958 341.691,545.993C344.165,550.531 350.077,561.443 352.742,565.879C355.835,570.878 359.509,577.046 362.64,582.002C366.624,587.798 371.244,595.077 375.366,600.739C378.568,604.988 385.531,614.866 388.866,618.862C393.453,624.528 398.274,630.939 403.064,636.381L412.85,647.763L414.076,649.181C463.413,704.119 521.95,750.609 583.287,791.252C592.268,796.634 600.29,784.338 592.173,778.241C551.371,749.392 512.602,718.095 476.783,683.456C471.124,677.704 464.462,671.251 458.929,665.394C453.272,659.277 444.715,650.301 439.43,643.979C437.259,641.474 433.265,636.882 431.134,634.425L429.997,633.022L420.93,621.786C415.738,615.439 410.664,608.24 405.691,601.694C401.899,596.141 395.085,586.543 391.602,580.864C389.707,577.82 385.867,571.771 383.971,568.721C381.191,563.933 377.85,558.025 375.09,553.19C374.651,552.411 373.753,550.867 373.385,550.05C372.412,547.961 365.989,535.918 365.271,534.156C363.159,529.459 360.009,522.681 357.885,517.954C344.254,485.887 334.874,451.393 334.248,416.478C333.507,381.3 343.347,345.099 367.334,318.757C402.821,279.697 460.966,264.976 512.034,275.119C547.191,281.955 577.911,302.298 604.06,326.113C610.811,332.298 617.325,338.827 623.637,345.641C630.713,353.062 637.129,361.307 644.101,369.035C653.073,377.383 667.114,376.877 675.462,367.905C695.889,345.073 717.403,323.276 742.603,306.077C754.601,298.003 766.9,291.041 780.253,285.881C827.924,267.822 885.646,274.911 926.809,304.949C998.28,357.392 981.594,455.634 946.983,525.431C924.57,571.319 893.341,612.618 858.005,649.446C854.882,652.577 850.24,657.394 847.13,660.495C763.193,744.201 633.221,804.182 587.539,855.574C568.586,876.896 554.053,902.306 553.846,931.486C553.401,984.021 595.115,1014.52 645.001,1012.973C656.936,1012.573 668.883,1010.441 680.328,1007.413C695.995,1003.248 710.551,997.749 725.548,992.538C753.385,982.738 827.487,956.695 856.252,946.584C882.072,937.726 910.54,929.237 937.044,939.182C946.986,942.957 956.141,949.254 961.709,958.432C970.819,973.604 969.008,992.894 962.499,1008.868C958.527,1018.507 952.596,1027.289 945.987,1035.318C937.836,1045.182 928.222,1054.313 918.217,1063.487L901.769,1022.324C898.815,1014.929 888.093,1015.745 886.283,1023.498L863.359,1121.742C861.988,1127.605 867.236,1132.868 873.105,1131.523L971.441,1109.002C979.201,1107.226 980.058,1096.508 972.676,1093.521L933.194,1077.557C943.201,1068.952 953.305,1059.938 962.553,1049.505C973.073,1037.613 982.131,1024.03 987.155,1008.872C994.226,988.162 994.195,964.474 983.007,945.069C982.139,943.674 981.004,941.909 980.115,940.528L980.115,940.53Z" style="fill:rgb(178,38,38);fill-rule:nonzero;"/>
            </g>
        </g>
        <g transform="matrix(1,0,0,1,189.184,964.302)">
            <g transform="matrix(320,0,0,320,0,0)">
                <path d="M0.452,-0.437C0.481,-0.437 0.508,-0.429 0.532,-0.415C0.556,-0.4 0.573,-0.378 0.582,-0.351L0.568,-0.346C0.557,-0.369 0.541,-0.387 0.52,-0.401C0.499,-0.414 0.476,-0.421 0.451,-0.421L0.429,-0.419C0.478,-0.367 0.507,-0.336 0.515,-0.325C0.544,-0.286 0.558,-0.247 0.558,-0.208C0.558,-0.143 0.529,-0.089 0.471,-0.047C0.418,-0.009 0.358,0.01 0.291,0.01C0.232,0.01 0.182,-0.004 0.14,-0.031C0.091,-0.062 0.067,-0.106 0.067,-0.162C0.067,-0.203 0.081,-0.237 0.109,-0.265C0.137,-0.293 0.171,-0.307 0.212,-0.307C0.242,-0.307 0.271,-0.3 0.299,-0.285C0.299,-0.338 0.321,-0.38 0.366,-0.411C0.351,-0.436 0.344,-0.46 0.344,-0.485C0.344,-0.534 0.369,-0.576 0.418,-0.611C0.463,-0.642 0.511,-0.658 0.562,-0.658C0.599,-0.658 0.631,-0.649 0.658,-0.631C0.69,-0.61 0.706,-0.582 0.706,-0.547C0.706,-0.516 0.694,-0.492 0.67,-0.474C0.647,-0.456 0.619,-0.447 0.588,-0.447C0.57,-0.447 0.553,-0.45 0.537,-0.456L0.541,-0.469L0.573,-0.466C0.597,-0.466 0.617,-0.472 0.633,-0.485C0.648,-0.498 0.656,-0.517 0.656,-0.54C0.656,-0.57 0.644,-0.594 0.619,-0.611C0.594,-0.628 0.566,-0.636 0.535,-0.636C0.498,-0.636 0.463,-0.624 0.43,-0.599C0.398,-0.574 0.382,-0.543 0.382,-0.506C0.382,-0.492 0.385,-0.479 0.391,-0.467C0.396,-0.455 0.405,-0.444 0.416,-0.433C0.422,-0.434 0.428,-0.435 0.433,-0.435C0.438,-0.436 0.445,-0.437 0.452,-0.437ZM0.314,-0.275C0.325,-0.267 0.335,-0.258 0.343,-0.247C0.351,-0.237 0.355,-0.226 0.355,-0.214L0.349,-0.195L0.333,-0.188C0.32,-0.188 0.311,-0.196 0.305,-0.212C0.302,-0.221 0.299,-0.235 0.297,-0.252C0.276,-0.278 0.246,-0.291 0.208,-0.291C0.178,-0.291 0.153,-0.28 0.134,-0.258C0.115,-0.236 0.105,-0.209 0.105,-0.178C0.105,-0.127 0.124,-0.086 0.164,-0.054C0.203,-0.022 0.248,-0.006 0.3,-0.006C0.355,-0.006 0.402,-0.021 0.443,-0.051C0.488,-0.084 0.511,-0.127 0.511,-0.18C0.511,-0.213 0.494,-0.252 0.461,-0.298C0.442,-0.323 0.414,-0.356 0.375,-0.397C0.354,-0.384 0.338,-0.367 0.329,-0.347C0.319,-0.326 0.314,-0.302 0.314,-0.275Z" style="fill-rule:nonzero;"/>
            </g>
            <g transform="matrix(320,0,0,320,188.48,0)">
                <path d="M0.191,-0.071C0.172,-0.052 0.151,-0.035 0.129,-0.021C0.101,-0.003 0.076,0.006 0.055,0.006C0.038,0.006 0.024,0 0.013,-0.012C0.002,-0.024 -0.003,-0.039 -0.003,-0.056C-0.003,-0.1 0.022,-0.147 0.071,-0.198C0.12,-0.248 0.166,-0.273 0.209,-0.273C0.22,-0.273 0.228,-0.271 0.235,-0.267C0.242,-0.262 0.245,-0.255 0.245,-0.245C0.245,-0.22 0.219,-0.193 0.168,-0.164C0.13,-0.143 0.092,-0.127 0.053,-0.116C0.048,-0.102 0.046,-0.09 0.046,-0.08C0.046,-0.067 0.049,-0.056 0.057,-0.048C0.064,-0.038 0.073,-0.034 0.085,-0.034C0.101,-0.034 0.119,-0.04 0.14,-0.052C0.151,-0.058 0.167,-0.069 0.188,-0.086L0.191,-0.071ZM0.198,-0.232C0.198,-0.243 0.192,-0.248 0.18,-0.248C0.16,-0.248 0.137,-0.234 0.111,-0.206C0.09,-0.183 0.074,-0.16 0.061,-0.136C0.088,-0.145 0.115,-0.157 0.142,-0.172C0.179,-0.193 0.198,-0.213 0.198,-0.232Z" style="fill-rule:nonzero;"/>
            </g>
            <g transform="matrix(320,0,0,320,264.96,0)">
                <path d="M0.055,-0.13L0.062,-0.148L0.109,-0.148C0.112,-0.155 0.114,-0.164 0.116,-0.173C0.118,-0.181 0.119,-0.19 0.119,-0.199C0.119,-0.224 0.108,-0.236 0.086,-0.236C0.081,-0.236 0.076,-0.235 0.07,-0.233C0.064,-0.231 0.058,-0.229 0.053,-0.228L0.047,-0.231L0.044,-0.237C0.047,-0.248 0.053,-0.257 0.064,-0.264C0.075,-0.27 0.086,-0.273 0.099,-0.273C0.114,-0.273 0.126,-0.268 0.133,-0.258C0.14,-0.248 0.143,-0.236 0.143,-0.221C0.143,-0.212 0.142,-0.204 0.14,-0.196C0.154,-0.215 0.171,-0.233 0.192,-0.248C0.217,-0.267 0.239,-0.276 0.26,-0.276C0.265,-0.276 0.271,-0.275 0.276,-0.272C0.281,-0.269 0.284,-0.264 0.284,-0.258C0.284,-0.252 0.276,-0.246 0.259,-0.24C0.234,-0.231 0.208,-0.222 0.183,-0.213C0.174,-0.206 0.167,-0.2 0.162,-0.193C0.156,-0.185 0.146,-0.171 0.132,-0.148L0.177,-0.148L0.169,-0.13L0.124,-0.13C0.119,-0.118 0.114,-0.106 0.111,-0.094C0.107,-0.082 0.105,-0.071 0.105,-0.06C0.105,-0.047 0.109,-0.036 0.117,-0.027C0.125,-0.018 0.136,-0.014 0.15,-0.014C0.159,-0.014 0.168,-0.017 0.176,-0.022C0.184,-0.026 0.188,-0.033 0.188,-0.042C0.188,-0.053 0.182,-0.058 0.17,-0.058C0.165,-0.057 0.161,-0.057 0.158,-0.057C0.148,-0.057 0.143,-0.062 0.143,-0.072C0.143,-0.081 0.146,-0.087 0.153,-0.092C0.16,-0.097 0.167,-0.099 0.176,-0.099C0.187,-0.099 0.197,-0.095 0.204,-0.088C0.21,-0.08 0.214,-0.07 0.214,-0.058C0.214,-0.04 0.207,-0.025 0.194,-0.013C0.181,-0.001 0.165,0.005 0.147,0.005C0.127,0.005 0.112,-0.002 0.102,-0.015C0.091,-0.028 0.086,-0.045 0.086,-0.066C0.069,-0.044 0.052,-0.027 0.035,-0.015C0.013,-0 -0.01,0.007 -0.033,0.007C-0.04,0.007 -0.046,0.005 -0.052,0.001C-0.057,-0.004 -0.06,-0.009 -0.06,-0.016C-0.06,-0.029 -0.053,-0.035 -0.038,-0.035C-0.027,-0.034 -0.019,-0.033 -0.015,-0.033C0.01,-0.033 0.034,-0.043 0.056,-0.064C0.073,-0.08 0.089,-0.102 0.102,-0.13L0.055,-0.13Z" style="fill-rule:nonzero;"/>
            </g>
            <g transform="matrix(320,0,0,320,432.32,0)">
                <path d="M0.452,-0.437C0.481,-0.437 0.508,-0.429 0.532,-0.415C0.556,-0.4 0.573,-0.378 0.582,-0.351L0.568,-0.346C0.557,-0.369 0.541,-0.387 0.52,-0.401C0.499,-0.414 0.476,-0.421 0.451,-0.421L0.429,-0.419C0.478,-0.367 0.507,-0.336 0.515,-0.325C0.544,-0.286 0.558,-0.247 0.558,-0.208C0.558,-0.143 0.529,-0.089 0.471,-0.047C0.418,-0.009 0.358,0.01 0.291,0.01C0.232,0.01 0.182,-0.004 0.14,-0.031C0.091,-0.062 0.067,-0.106 0.067,-0.162C0.067,-0.203 0.081,-0.237 0.109,-0.265C0.137,-0.293 0.171,-0.307 0.212,-0.307C0.242,-0.307 0.271,-0.3 0.299,-0.285C0.299,-0.338 0.321,-0.38 0.366,-0.411C0.351,-0.436 0.344,-0.46 0.344,-0.485C0.344,-0.534 0.369,-0.576 0.418,-0.611C0.463,-0.642 0.511,-0.658 0.562,-0.658C0.599,-0.658 0.631,-0.649 0.658,-0.631C0.69,-0.61 0.706,-0.582 0.706,-0.547C0.706,-0.516 0.694,-0.492 0.67,-0.474C0.647,-0.456 0.619,-0.447 0.588,-0.447C0.57,-0.447 0.553,-0.45 0.537,-0.456L0.541,-0.469L0.573,-0.466C0.597,-0.466 0.617,-0.472 0.633,-0.485C0.648,-0.498 0.656,-0.517 0.656,-0.54C0.656,-0.57 0.644,-0.594 0.619,-0.611C0.594,-0.628 0.566,-0.636 0.535,-0.636C0.498,-0.636 0.463,-0.624 0.43,-0.599C0.398,-0.574 0.382,-0.543 0.382,-0.506C0.382,-0.492 0.385,-0.479 0.391,-0.467C0.396,-0.455 0.405,-0.444 0.416,-0.433C0.422,-0.434 0.428,-0.435 0.433,-0.435C0.438,-0.436 0.445,-0.437 0.452,-0.437ZM0.314,-0.275C0.325,-0.267 0.335,-0.258 0.343,-0.247C0.351,-0.237 0.355,-0.226 0.355,-0.214L0.349,-0.195L0.333,-0.188C0.32,-0.188 0.311,-0.196 0.305,-0.212C0.302,-0.221 0.299,-0.235 0.297,-0.252C0.276,-0.278 0.246,-0.291 0.208,-0.291C0.178,-0.291 0.153,-0.28 0.134,-0.258C0.115,-0.236 0.105,-0.209 0.105,-0.178C0.105,-0.127 0.124,-0.086 0.164,-0.054C0.203,-0.022 0.248,-0.006 0.3,-0.006C0.355,-0.006 0.402,-0.021 0.443,-0.051C0.488,-0.084 0.511,-0.127 0.511,-0.18C0.511,-0.213 0.494,-0.252 0.461,-0.298C0.442,-0.323 0.414,-0.356 0.375,-0.397C0.354,-0.384 0.338,-0.367 0.329,-0.347C0.319,-0.326 0.314,-0.302 0.314,-0.275Z" style="fill-rule:nonzero;"/>
            </g>
            <g transform="matrix(320,0,0,320,620.8,0)">
                <path d="M0.013,0.007C-0.002,0.007 -0.016,0.005 -0.027,0.001C-0.038,-0.003 -0.046,-0.011 -0.05,-0.023L-0.044,-0.037C-0.039,-0.038 -0.035,-0.04 -0.03,-0.042C-0.026,-0.042 -0.021,-0.041 -0.015,-0.038C-0.008,-0.035 -0.003,-0.034 0.001,-0.033C0.042,-0.049 0.086,-0.107 0.133,-0.206C0.198,-0.341 0.243,-0.427 0.268,-0.462C0.332,-0.55 0.407,-0.594 0.493,-0.594C0.51,-0.594 0.524,-0.592 0.535,-0.587C0.547,-0.582 0.556,-0.573 0.561,-0.559L0.554,-0.544L0.54,-0.538C0.533,-0.539 0.519,-0.545 0.497,-0.556C0.48,-0.564 0.464,-0.568 0.449,-0.568C0.411,-0.568 0.372,-0.543 0.333,-0.492C0.308,-0.459 0.276,-0.406 0.239,-0.333C0.201,-0.26 0.176,-0.215 0.165,-0.2C0.186,-0.221 0.208,-0.239 0.231,-0.252C0.26,-0.269 0.286,-0.277 0.311,-0.277C0.326,-0.277 0.338,-0.273 0.349,-0.264C0.359,-0.255 0.364,-0.243 0.364,-0.229C0.364,-0.21 0.349,-0.187 0.319,-0.161C0.248,-0.099 0.21,-0.058 0.205,-0.037L0.22,-0.021C0.239,-0.026 0.257,-0.03 0.276,-0.035C0.279,-0.035 0.283,-0.034 0.286,-0.033C0.288,-0.032 0.291,-0.031 0.292,-0.03L0.297,-0.018L0.291,-0.005C0.287,-0.004 0.284,-0.003 0.282,-0.002C0.279,-0.001 0.277,-0 0.275,-0C0.267,-0 0.255,-0 0.24,-0.001C0.225,-0.002 0.213,-0.002 0.206,-0.002L0.171,-0L0.157,-0.017C0.157,-0.036 0.183,-0.068 0.235,-0.112C0.287,-0.156 0.313,-0.19 0.313,-0.215C0.313,-0.236 0.302,-0.246 0.28,-0.246C0.249,-0.246 0.217,-0.23 0.184,-0.199C0.17,-0.186 0.142,-0.154 0.1,-0.102C0.066,-0.061 0.04,-0.035 0.021,-0.024L0.044,-0.021C0.054,-0.021 0.064,-0.023 0.074,-0.026C0.085,-0.03 0.095,-0.035 0.104,-0.042L0.111,-0.034C0.096,-0.022 0.08,-0.012 0.064,-0.005C0.047,0.003 0.03,0.007 0.013,0.007Z" style="fill-rule:nonzero;"/>
            </g>
            <g transform="matrix(320,0,0,320,736.32,0)">
                <path d="M0.063,0.008C0.041,0.008 0.024,0.002 0.013,-0.011C0.003,-0.024 -0.003,-0.042 -0.003,-0.065C-0.003,-0.114 0.023,-0.161 0.076,-0.208C0.13,-0.254 0.181,-0.277 0.231,-0.277C0.241,-0.277 0.25,-0.275 0.258,-0.272C0.266,-0.268 0.27,-0.262 0.27,-0.254C0.27,-0.243 0.263,-0.237 0.249,-0.237C0.242,-0.237 0.232,-0.239 0.219,-0.243C0.206,-0.247 0.195,-0.249 0.188,-0.249C0.153,-0.249 0.12,-0.229 0.089,-0.189C0.059,-0.148 0.044,-0.109 0.044,-0.072C0.044,-0.056 0.047,-0.044 0.053,-0.035C0.059,-0.026 0.07,-0.021 0.085,-0.021C0.114,-0.021 0.142,-0.036 0.167,-0.066C0.192,-0.096 0.205,-0.126 0.205,-0.156C0.205,-0.161 0.203,-0.168 0.2,-0.179C0.197,-0.19 0.195,-0.198 0.195,-0.203C0.195,-0.208 0.197,-0.212 0.201,-0.215C0.204,-0.219 0.208,-0.221 0.213,-0.221C0.222,-0.221 0.229,-0.216 0.233,-0.207C0.236,-0.197 0.238,-0.187 0.238,-0.176C0.238,-0.137 0.218,-0.097 0.179,-0.055C0.14,-0.013 0.101,0.008 0.063,0.008Z" style="fill-rule:nonzero;"/>
            </g>
            <g transform="matrix(320,0,0,320,821.44,0)">
                <path d="M-0.207,0.329C-0.227,0.329 -0.241,0.328 -0.25,0.326C-0.27,0.321 -0.28,0.312 -0.28,0.299C-0.28,0.297 -0.279,0.295 -0.278,0.292C-0.276,0.289 -0.274,0.287 -0.273,0.284L-0.257,0.278L-0.224,0.287C-0.189,0.276 -0.14,0.212 -0.078,0.097C0.021,-0.087 0.077,-0.19 0.091,-0.211C0.162,-0.319 0.227,-0.373 0.288,-0.373C0.293,-0.373 0.297,-0.372 0.301,-0.37C0.305,-0.369 0.309,-0.367 0.313,-0.366L0.322,-0.349L0.316,-0.334C0.308,-0.33 0.303,-0.328 0.3,-0.328C0.293,-0.328 0.284,-0.33 0.273,-0.333C0.262,-0.335 0.254,-0.337 0.25,-0.337C0.219,-0.337 0.187,-0.312 0.152,-0.262C0.139,-0.244 0.127,-0.222 0.115,-0.197C0.136,-0.22 0.156,-0.237 0.173,-0.248C0.198,-0.265 0.223,-0.273 0.246,-0.273C0.263,-0.273 0.276,-0.268 0.285,-0.258C0.294,-0.248 0.299,-0.234 0.299,-0.217C0.299,-0.17 0.276,-0.121 0.229,-0.07C0.181,-0.019 0.134,0.006 0.087,0.006C0.085,0.006 0.08,0.004 0.072,0.002C0.064,-0.002 0.059,-0.003 0.058,-0.004L0.046,-0.027L0.052,-0.042L0.067,-0.048L0.08,-0.038C0.08,-0.031 0.082,-0.024 0.086,-0.019C0.089,-0.014 0.095,-0.012 0.103,-0.012C0.135,-0.012 0.168,-0.036 0.201,-0.083C0.234,-0.13 0.251,-0.17 0.251,-0.203C0.251,-0.205 0.249,-0.21 0.246,-0.217C0.243,-0.224 0.242,-0.228 0.242,-0.229L0.219,-0.239C0.172,-0.239 0.125,-0.2 0.078,-0.122C0.037,-0.043 -0.004,0.036 -0.045,0.115C-0.098,0.21 -0.15,0.27 -0.202,0.296C-0.19,0.3 -0.178,0.302 -0.166,0.302C-0.151,0.302 -0.136,0.3 -0.12,0.295C-0.105,0.291 -0.09,0.285 -0.076,0.277L-0.069,0.287C-0.087,0.3 -0.108,0.311 -0.134,0.318C-0.159,0.325 -0.183,0.329 -0.207,0.329Z" style="fill-rule:nonzero;"/>
            </g>
        </g>
        <g transform="matrix(1,0,0,1,191.916,964.302)">
            <g transform="matrix(320,0,0,320,0,0)">
                <path d="M0.452,-0.437C0.481,-0.437 0.508,-0.429 0.532,-0.415C0.556,-0.4 0.573,-0.378 0.582,-0.351L0.568,-0.346C0.557,-0.369 0.541,-0.387 0.52,-0.401C0.499,-0.414 0.476,-0.421 0.451,-0.421L0.429,-0.419C0.478,-0.367 0.507,-0.336 0.515,-0.325C0.544,-0.286 0.558,-0.247 0.558,-0.208C0.558,-0.143 0.529,-0.089 0.471,-0.047C0.418,-0.009 0.358,0.01 0.291,0.01C0.232,0.01 0.182,-0.004 0.14,-0.031C0.091,-0.062 0.067,-0.106 0.067,-0.162C0.067,-0.203 0.081,-0.237 0.109,-0.265C0.137,-0.293 0.171,-0.307 0.212,-0.307C0.242,-0.307 0.271,-0.3 0.299,-0.285C0.299,-0.338 0.321,-0.38 0.366,-0.411C0.351,-0.436 0.344,-0.46 0.344,-0.485C0.344,-0.534 0.369,-0.576 0.418,-0.611C0.463,-0.642 0.511,-0.658 0.562,-0.658C0.599,-0.658 0.631,-0.649 0.658,-0.631C0.69,-0.61 0.706,-0.582 0.706,-0.547C0.706,-0.516 0.694,-0.492 0.67,-0.474C0.647,-0.456 0.619,-0.447 0.588,-0.447C0.57,-0.447 0.553,-0.45 0.537,-0.456L0.541,-0.469L0.573,-0.466C0.597,-0.466 0.617,-0.472 0.633,-0.485C0.648,-0.498 0.656,-0.517 0.656,-0.54C0.656,-0.57 0.644,-0.594 0.619,-0.611C0.594,-0.628 0.566,-0.636 0.535,-0.636C0.498,-0.636 0.463,-0.624 0.43,-0.599C0.398,-0.574 0.382,-0.543 0.382,-0.506C0.382,-0.492 0.385,-0.479 0.391,-0.467C0.396,-0.455 0.405,-0.444 0.416,-0.433C0.422,-0.434 0.428,-0.435 0.433,-0.435C0.438,-0.436 0.445,-0.437 0.452,-0.437ZM0.314,-0.275C0.325,-0.267 0.335,-0.258 0.343,-0.247C0.351,-0.237 0.355,-0.226 0.355,-0.214L0.349,-0.195L0.333,-0.188C0.32,-0.188 0.311,-0.196 0.305,-0.212C0.302,-0.221 0.299,-0.235 0.297,-0.252C0.276,-0.278 0.246,-0.291 0.208,-0.291C0.178,-0.291 0.153,-0.28 0.134,-0.258C0.115,-0.236 0.105,-0.209 0.105,-0.178C0.105,-0.127 0.124,-0.086 0.164,-0.054C0.203,-0.022 0.248,-0.006 0.3,-0.006C0.355,-0.006 0.402,-0.021 0.443,-0.051C0.488,-0.084 0.511,-0.127 0.511,-0.18C0.511,-0.213 0.494,-0.252 0.461,-0.298C0.442,-0.323 0.414,-0.356 0.375,-0.397C0.354,-0.384 0.338,-0.367 0.329,-0.347C0.319,-0.326 0.314,-0.302 0.314,-0.275Z" style="fill-rule:nonzero;"/>
            </g>
            <g transform="matrix(320,0,0,320,188.48,0)">
                <path d="M0.191,-0.071C0.172,-0.052 0.151,-0.035 0.129,-0.021C0.101,-0.003 0.076,0.006 0.055,0.006C0.038,0.006 0.024,0 0.013,-0.012C0.002,-0.024 -0.003,-0.039 -0.003,-0.056C-0.003,-0.1 0.022,-0.147 0.071,-0.198C0.12,-0.248 0.166,-0.273 0.209,-0.273C0.22,-0.273 0.228,-0.271 0.235,-0.267C0.242,-0.262 0.245,-0.255 0.245,-0.245C0.245,-0.22 0.219,-0.193 0.168,-0.164C0.13,-0.143 0.092,-0.127 0.053,-0.116C0.048,-0.102 0.046,-0.09 0.046,-0.08C0.046,-0.067 0.049,-0.056 0.057,-0.048C0.064,-0.038 0.073,-0.034 0.085,-0.034C0.101,-0.034 0.119,-0.04 0.14,-0.052C0.151,-0.058 0.167,-0.069 0.188,-0.086L0.191,-0.071ZM0.198,-0.232C0.198,-0.243 0.192,-0.248 0.18,-0.248C0.16,-0.248 0.137,-0.234 0.111,-0.206C0.09,-0.183 0.074,-0.16 0.061,-0.136C0.088,-0.145 0.115,-0.157 0.142,-0.172C0.179,-0.193 0.198,-0.213 0.198,-0.232Z" style="fill-rule:nonzero;"/>
            </g>
            <g transform="matrix(320,0,0,320,264.96,0)">
                <path d="M0.055,-0.13L0.062,-0.148L0.109,-0.148C0.112,-0.155 0.114,-0.164 0.116,-0.173C0.118,-0.181 0.119,-0.19 0.119,-0.199C0.119,-0.224 0.108,-0.236 0.086,-0.236C0.081,-0.236 0.076,-0.235 0.07,-0.233C0.064,-0.231 0.058,-0.229 0.053,-0.228L0.047,-0.231L0.044,-0.237C0.047,-0.248 0.053,-0.257 0.064,-0.264C0.075,-0.27 0.086,-0.273 0.099,-0.273C0.114,-0.273 0.126,-0.268 0.133,-0.258C0.14,-0.248 0.143,-0.236 0.143,-0.221C0.143,-0.212 0.142,-0.204 0.14,-0.196C0.154,-0.215 0.171,-0.233 0.192,-0.248C0.217,-0.267 0.239,-0.276 0.26,-0.276C0.265,-0.276 0.271,-0.275 0.276,-0.272C0.281,-0.269 0.284,-0.264 0.284,-0.258C0.284,-0.252 0.276,-0.246 0.259,-0.24C0.234,-0.231 0.208,-0.222 0.183,-0.213C0.174,-0.206 0.167,-0.2 0.162,-0.193C0.156,-0.185 0.146,-0.171 0.132,-0.148L0.177,-0.148L0.169,-0.13L0.124,-0.13C0.119,-0.118 0.114,-0.106 0.111,-0.094C0.107,-0.082 0.105,-0.071 0.105,-0.06C0.105,-0.047 0.109,-0.036 0.117,-0.027C0.125,-0.018 0.136,-0.014 0.15,-0.014C0.159,-0.014 0.168,-0.017 0.176,-0.022C0.184,-0.026 0.188,-0.033 0.188,-0.042C0.188,-0.053 0.182,-0.058 0.17,-0.058C0.165,-0.057 0.161,-0.057 0.158,-0.057C0.148,-0.057 0.143,-0.062 0.143,-0.072C0.143,-0.081 0.146,-0.087 0.153,-0.092C0.16,-0.097 0.167,-0.099 0.176,-0.099C0.187,-0.099 0.197,-0.095 0.204,-0.088C0.21,-0.08 0.214,-0.07 0.214,-0.058C0.214,-0.04 0.207,-0.025 0.194,-0.013C0.181,-0.001 0.165,0.005 0.147,0.005C0.127,0.005 0.112,-0.002 0.102,-0.015C0.091,-0.028 0.086,-0.045 0.086,-0.066C0.069,-0.044 0.052,-0.027 0.035,-0.015C0.013,-0 -0.01,0.007 -0.033,0.007C-0.04,0.007 -0.046,0.005 -0.052,0.001C-0.057,-0.004 -0.06,-0.009 -0.06,-0.016C-0.06,-0.029 -0.053,-0.035 -0.038,-0.035C-0.027,-0.034 -0.019,-0.033 -0.015,-0.033C0.01,-0.033 0.034,-0.043 0.056,-0.064C0.073,-0.08 0.089,-0.102 0.102,-0.13L0.055,-0.13Z" style="fill-rule:nonzero;"/>
            </g>
            <g transform="matrix(320,0,0,320,432.32,0)">
                <path d="M0.452,-0.437C0.481,-0.437 0.508,-0.429 0.532,-0.415C0.556,-0.4 0.573,-0.378 0.582,-0.351L0.568,-0.346C0.557,-0.369 0.541,-0.387 0.52,-0.401C0.499,-0.414 0.476,-0.421 0.451,-0.421L0.429,-0.419C0.478,-0.367 0.507,-0.336 0.515,-0.325C0.544,-0.286 0.558,-0.247 0.558,-0.208C0.558,-0.143 0.529,-0.089 0.471,-0.047C0.418,-0.009 0.358,0.01 0.291,0.01C0.232,0.01 0.182,-0.004 0.14,-0.031C0.091,-0.062 0.067,-0.106 0.067,-0.162C0.067,-0.203 0.081,-0.237 0.109,-0.265C0.137,-0.293 0.171,-0.307 0.212,-0.307C0.242,-0.307 0.271,-0.3 0.299,-0.285C0.299,-0.338 0.321,-0.38 0.366,-0.411C0.351,-0.436 0.344,-0.46 0.344,-0.485C0.344,-0.534 0.369,-0.576 0.418,-0.611C0.463,-0.642 0.511,-0.658 0.562,-0.658C0.599,-0.658 0.631,-0.649 0.658,-0.631C0.69,-0.61 0.706,-0.582 0.706,-0.547C0.706,-0.516 0.694,-0.492 0.67,-0.474C0.647,-0.456 0.619,-0.447 0.588,-0.447C0.57,-0.447 0.553,-0.45 0.537,-0.456L0.541,-0.469L0.573,-0.466C0.597,-0.466 0.617,-0.472 0.633,-0.485C0.648,-0.498 0.656,-0.517 0.656,-0.54C0.656,-0.57 0.644,-0.594 0.619,-0.611C0.594,-0.628 0.566,-0.636 0.535,-0.636C0.498,-0.636 0.463,-0.624 0.43,-0.599C0.398,-0.574 0.382,-0.543 0.382,-0.506C0.382,-0.492 0.385,-0.479 0.391,-0.467C0.396,-0.455 0.405,-0.444 0.416,-0.433C0.422,-0.434 0.428,-0.435 0.433,-0.435C0.438,-0.436 0.445,-0.437 0.452,-0.437ZM0.314,-0.275C0.325,-0.267 0.335,-0.258 0.343,-0.247C0.351,-0.237 0.355,-0.226 0.355,-0.214L0.349,-0.195L0.333,-0.188C0.32,-0.188 0.311,-0.196 0.305,-0.212C0.302,-0.221 0.299,-0.235 0.297,-0.252C0.276,-0.278 0.246,-0.291 0.208,-0.291C0.178,-0.291 0.153,-0.28 0.134,-0.258C0.115,-0.236 0.105,-0.209 0.105,-0.178C0.105,-0.127 0.124,-0.086 0.164,-0.054C0.203,-0.022 0.248,-0.006 0.3,-0.006C0.355,-0.006 0.402,-0.021 0.443,-0.051C0.488,-0.084 0.511,-0.127 0.511,-0.18C0.511,-0.213 0.494,-0.252 0.461,-0.298C0.442,-0.323 0.414,-0.356 0.375,-0.397C0.354,-0.384 0.338,-0.367 0.329,-0.347C0.319,-0.326 0.314,-0.302 0.314,-0.275Z" style="fill-rule:nonzero;"/>
            </g>
            <g transform="matrix(320,0,0,320,620.8,0)">
                <path d="M0.013,0.007C-0.002,0.007 -0.016,0.005 -0.027,0.001C-0.038,-0.003 -0.046,-0.011 -0.05,-0.023L-0.044,-0.037C-0.039,-0.038 -0.035,-0.04 -0.03,-0.042C-0.026,-0.042 -0.021,-0.041 -0.015,-0.038C-0.008,-0.035 -0.003,-0.034 0.001,-0.033C0.042,-0.049 0.086,-0.107 0.133,-0.206C0.198,-0.341 0.243,-0.427 0.268,-0.462C0.332,-0.55 0.407,-0.594 0.493,-0.594C0.51,-0.594 0.524,-0.592 0.535,-0.587C0.547,-0.582 0.556,-0.573 0.561,-0.559L0.554,-0.544L0.54,-0.538C0.533,-0.539 0.519,-0.545 0.497,-0.556C0.48,-0.564 0.464,-0.568 0.449,-0.568C0.411,-0.568 0.372,-0.543 0.333,-0.492C0.308,-0.459 0.276,-0.406 0.239,-0.333C0.201,-0.26 0.176,-0.215 0.165,-0.2C0.186,-0.221 0.208,-0.239 0.231,-0.252C0.26,-0.269 0.286,-0.277 0.311,-0.277C0.326,-0.277 0.338,-0.273 0.349,-0.264C0.359,-0.255 0.364,-0.243 0.364,-0.229C0.364,-0.21 0.349,-0.187 0.319,-0.161C0.248,-0.099 0.21,-0.058 0.205,-0.037L0.22,-0.021C0.239,-0.026 0.257,-0.03 0.276,-0.035C0.279,-0.035 0.283,-0.034 0.286,-0.033C0.288,-0.032 0.291,-0.031 0.292,-0.03L0.297,-0.018L0.291,-0.005C0.287,-0.004 0.284,-0.003 0.282,-0.002C0.279,-0.001 0.277,-0 0.275,-0C0.267,-0 0.255,-0 0.24,-0.001C0.225,-0.002 0.213,-0.002 0.206,-0.002L0.171,-0L0.157,-0.017C0.157,-0.036 0.183,-0.068 0.235,-0.112C0.287,-0.156 0.313,-0.19 0.313,-0.215C0.313,-0.236 0.302,-0.246 0.28,-0.246C0.249,-0.246 0.217,-0.23 0.184,-0.199C0.17,-0.186 0.142,-0.154 0.1,-0.102C0.066,-0.061 0.04,-0.035 0.021,-0.024L0.044,-0.021C0.054,-0.021 0.064,-0.023 0.074,-0.026C0.085,-0.03 0.095,-0.035 0.104,-0.042L0.111,-0.034C0.096,-0.022 0.08,-0.012 0.064,-0.005C0.047,0.003 0.03,0.007 0.013,0.007Z" style="fill-rule:nonzero;"/>
            </g>
            <g transform="matrix(320,0,0,320,736.32,0)">
                <path d="M0.063,0.008C0.041,0.008 0.024,0.002 0.013,-0.011C0.003,-0.024 -0.003,-0.042 -0.003,-0.065C-0.003,-0.114 0.023,-0.161 0.076,-0.208C0.13,-0.254 0.181,-0.277 0.231,-0.277C0.241,-0.277 0.25,-0.275 0.258,-0.272C0.266,-0.268 0.27,-0.262 0.27,-0.254C0.27,-0.243 0.263,-0.237 0.249,-0.237C0.242,-0.237 0.232,-0.239 0.219,-0.243C0.206,-0.247 0.195,-0.249 0.188,-0.249C0.153,-0.249 0.12,-0.229 0.089,-0.189C0.059,-0.148 0.044,-0.109 0.044,-0.072C0.044,-0.056 0.047,-0.044 0.053,-0.035C0.059,-0.026 0.07,-0.021 0.085,-0.021C0.114,-0.021 0.142,-0.036 0.167,-0.066C0.192,-0.096 0.205,-0.126 0.205,-0.156C0.205,-0.161 0.203,-0.168 0.2,-0.179C0.197,-0.19 0.195,-0.198 0.195,-0.203C0.195,-0.208 0.197,-0.212 0.201,-0.215C0.204,-0.219 0.208,-0.221 0.213,-0.221C0.222,-0.221 0.229,-0.216 0.233,-0.207C0.236,-0.197 0.238,-0.187 0.238,-0.176C0.238,-0.137 0.218,-0.097 0.179,-0.055C0.14,-0.013 0.101,0.008 0.063,0.008Z" style="fill-rule:nonzero;"/>
            </g>
            <g transform="matrix(320,0,0,320,821.44,0)">
                <path d="M-0.207,0.329C-0.227,0.329 -0.241,0.328 -0.25,0.326C-0.27,0.321 -0.28,0.312 -0.28,0.299C-0.28,0.297 -0.279,0.295 -0.278,0.292C-0.276,0.289 -0.274,0.287 -0.273,0.284L-0.257,0.278L-0.224,0.287C-0.189,0.276 -0.14,0.212 -0.078,0.097C0.021,-0.087 0.077,-0.19 0.091,-0.211C0.162,-0.319 0.227,-0.373 0.288,-0.373C0.293,-0.373 0.297,-0.372 0.301,-0.37C0.305,-0.369 0.309,-0.367 0.313,-0.366L0.322,-0.349L0.316,-0.334C0.308,-0.33 0.303,-0.328 0.3,-0.328C0.293,-0.328 0.284,-0.33 0.273,-0.333C0.262,-0.335 0.254,-0.337 0.25,-0.337C0.219,-0.337 0.187,-0.312 0.152,-0.262C0.139,-0.244 0.127,-0.222 0.115,-0.197C0.136,-0.22 0.156,-0.237 0.173,-0.248C0.198,-0.265 0.223,-0.273 0.246,-0.273C0.263,-0.273 0.276,-0.268 0.285,-0.258C0.294,-0.248 0.299,-0.234 0.299,-0.217C0.299,-0.17 0.276,-0.121 0.229,-0.07C0.181,-0.019 0.134,0.006 0.087,0.006C0.085,0.006 0.08,0.004 0.072,0.002C0.064,-0.002 0.059,-0.003 0.058,-0.004L0.046,-0.027L0.052,-0.042L0.067,-0.048L0.08,-0.038C0.08,-0.031 0.082,-0.024 0.086,-0.019C0.089,-0.014 0.095,-0.012 0.103,-0.012C0.135,-0.012 0.168,-0.036 0.201,-0.083C0.234,-0.13 0.251,-0.17 0.251,-0.203C0.251,-0.205 0.249,-0.21 0.246,-0.217C0.243,-0.224 0.242,-0.228 0.242,-0.229L0.219,-0.239C0.172,-0.239 0.125,-0.2 0.078,-0.122C0.037,-0.043 -0.004,0.036 -0.045,0.115C-0.098,0.21 -0.15,0.27 -0.202,0.296C-0.19,0.3 -0.178,0.302 -0.166,0.302C-0.151,0.302 -0.136,0.3 -0.12,0.295C-0.105,0.291 -0.09,0.285 -0.076,0.277L-0.069,0.287C-0.087,0.3 -0.108,0.311 -0.134,0.318C-0.159,0.325 -0.183,0.329 -0.207,0.329Z" style="fill-rule:nonzero;"/>
            </g>
        </g>
        <g transform="matrix(1,0,0,1,191.916,964.302)">
            <g transform="matrix(320,0,0,320,0,0)">
                <path d="M0.452,-0.437C0.481,-0.437 0.508,-0.429 0.532,-0.415C0.556,-0.4 0.573,-0.378 0.582,-0.351L0.568,-0.346C0.557,-0.369 0.541,-0.387 0.52,-0.401C0.499,-0.414 0.476,-0.421 0.451,-0.421L0.429,-0.419C0.478,-0.367 0.507,-0.336 0.515,-0.325C0.544,-0.286 0.558,-0.247 0.558,-0.208C0.558,-0.143 0.529,-0.089 0.471,-0.047C0.418,-0.009 0.358,0.01 0.291,0.01C0.232,0.01 0.182,-0.004 0.14,-0.031C0.091,-0.062 0.067,-0.106 0.067,-0.162C0.067,-0.203 0.081,-0.237 0.109,-0.265C0.137,-0.293 0.171,-0.307 0.212,-0.307C0.242,-0.307 0.271,-0.3 0.299,-0.285C0.299,-0.338 0.321,-0.38 0.366,-0.411C0.351,-0.436 0.344,-0.46 0.344,-0.485C0.344,-0.534 0.369,-0.576 0.418,-0.611C0.463,-0.642 0.511,-0.658 0.562,-0.658C0.599,-0.658 0.631,-0.649 0.658,-0.631C0.69,-0.61 0.706,-0.582 0.706,-0.547C0.706,-0.516 0.694,-0.492 0.67,-0.474C0.647,-0.456 0.619,-0.447 0.588,-0.447C0.57,-0.447 0.553,-0.45 0.537,-0.456L0.541,-0.469L0.573,-0.466C0.597,-0.466 0.617,-0.472 0.633,-0.485C0.648,-0.498 0.656,-0.517 0.656,-0.54C0.656,-0.57 0.644,-0.594 0.619,-0.611C0.594,-0.628 0.566,-0.636 0.535,-0.636C0.498,-0.636 0.463,-0.624 0.43,-0.599C0.398,-0.574 0.382,-0.543 0.382,-0.506C0.382,-0.492 0.385,-0.479 0.391,-0.467C0.396,-0.455 0.405,-0.444 0.416,-0.433C0.422,-0.434 0.428,-0.435 0.433,-0.435C0.438,-0.436 0.445,-0.437 0.452,-0.437ZM0.314,-0.275C0.325,-0.267 0.335,-0.258 0.343,-0.247C0.351,-0.237 0.355,-0.226 0.355,-0.214L0.349,-0.195L0.333,-0.188C0.32,-0.188 0.311,-0.196 0.305,-0.212C0.302,-0.221 0.299,-0.235 0.297,-0.252C0.276,-0.278 0.246,-0.291 0.208,-0.291C0.178,-0.291 0.153,-0.28 0.134,-0.258C0.115,-0.236 0.105,-0.209 0.105,-0.178C0.105,-0.127 0.124,-0.086 0.164,-0.054C0.203,-0.022 0.248,-0.006 0.3,-0.006C0.355,-0.006 0.402,-0.021 0.443,-0.051C0.488,-0.084 0.511,-0.127 0.511,-0.18C0.511,-0.213 0.494,-0.252 0.461,-0.298C0.442,-0.323 0.414,-0.356 0.375,-0.397C0.354,-0.384 0.338,-0.367 0.329,-0.347C0.319,-0.326 0.314,-0.302 0.314,-0.275Z" style="fill-rule:nonzero;"/>
            </g>
            <g transform="matrix(320,0,0,320,188.48,0)">
                <path d="M0.191,-0.071C0.172,-0.052 0.151,-0.035 0.129,-0.021C0.101,-0.003 0.076,0.006 0.055,0.006C0.038,0.006 0.024,0 0.013,-0.012C0.002,-0.024 -0.003,-0.039 -0.003,-0.056C-0.003,-0.1 0.022,-0.147 0.071,-0.198C0.12,-0.248 0.166,-0.273 0.209,-0.273C0.22,-0.273 0.228,-0.271 0.235,-0.267C0.242,-0.262 0.245,-0.255 0.245,-0.245C0.245,-0.22 0.219,-0.193 0.168,-0.164C0.13,-0.143 0.092,-0.127 0.053,-0.116C0.048,-0.102 0.046,-0.09 0.046,-0.08C0.046,-0.067 0.049,-0.056 0.057,-0.048C0.064,-0.038 0.073,-0.034 0.085,-0.034C0.101,-0.034 0.119,-0.04 0.14,-0.052C0.151,-0.058 0.167,-0.069 0.188,-0.086L0.191,-0.071ZM0.198,-0.232C0.198,-0.243 0.192,-0.248 0.18,-0.248C0.16,-0.248 0.137,-0.234 0.111,-0.206C0.09,-0.183 0.074,-0.16 0.061,-0.136C0.088,-0.145 0.115,-0.157 0.142,-0.172C0.179,-0.193 0.198,-0.213 0.198,-0.232Z" style="fill-rule:nonzero;"/>
            </g>
            <g transform="matrix(320,0,0,320,264.96,0)">
                <path d="M0.055,-0.13L0.062,-0.148L0.109,-0.148C0.112,-0.155 0.114,-0.164 0.116,-0.173C0.118,-0.181 0.119,-0.19 0.119,-0.199C0.119,-0.224 0.108,-0.236 0.086,-0.236C0.081,-0.236 0.076,-0.235 0.07,-0.233C0.064,-0.231 0.058,-0.229 0.053,-0.228L0.047,-0.231L0.044,-0.237C0.047,-0.248 0.053,-0.257 0.064,-0.264C0.075,-0.27 0.086,-0.273 0.099,-0.273C0.114,-0.273 0.126,-0.268 0.133,-0.258C0.14,-0.248 0.143,-0.236 0.143,-0.221C0.143,-0.212 0.142,-0.204 0.14,-0.196C0.154,-0.215 0.171,-0.233 0.192,-0.248C0.217,-0.267 0.239,-0.276 0.26,-0.276C0.265,-0.276 0.271,-0.275 0.276,-0.272C0.281,-0.269 0.284,-0.264 0.284,-0.258C0.284,-0.252 0.276,-0.246 0.259,-0.24C0.234,-0.231 0.208,-0.222 0.183,-0.213C0.174,-0.206 0.167,-0.2 0.162,-0.193C0.156,-0.185 0.146,-0.171 0.132,-0.148L0.177,-0.148L0.169,-0.13L0.124,-0.13C0.119,-0.118 0.114,-0.106 0.111,-0.094C0.107,-0.082 0.105,-0.071 0.105,-0.06C0.105,-0.047 0.109,-0.036 0.117,-0.027C0.125,-0.018 0.136,-0.014 0.15,-0.014C0.159,-0.014 0.168,-0.017 0.176,-0.022C0.184,-0.026 0.188,-0.033 0.188,-0.042C0.188,-0.053 0.182,-0.058 0.17,-0.058C0.165,-0.057 0.161,-0.057 0.158,-0.057C0.148,-0.057 0.143,-0.062 0.143,-0.072C0.143,-0.081 0.146,-0.087 0.153,-0.092C0.16,-0.097 0.167,-0.099 0.176,-0.099C0.187,-0.099 0.197,-0.095 0.204,-0.088C0.21,-0.08 0.214,-0.07 0.214,-0.058C0.214,-0.04 0.207,-0.025 0.194,-0.013C0.181,-0.001 0.165,0.005 0.147,0.005C0.127,0.005 0.112,-0.002 0.102,-0.015C0.091,-0.028 0.086,-0.045 0.086,-0.066C0.069,-0.044 0.052,-0.027 0.035,-0.015C0.013,-0 -0.01,0.007 -0.033,0.007C-0.04,0.007 -0.046,0.005 -0.052,0.001C-0.057,-0.004 -0.06,-0.009 -0.06,-0.016C-0.06,-0.029 -0.053,-0.035 -0.038,-0.035C-0.027,-0.034 -0.019,-0.033 -0.015,-0.033C0.01,-0.033 0.034,-0.043 0.056,-0.064C0.073,-0.08 0.089,-0.102 0.102,-0.13L0.055,-0.13Z" style="fill-rule:nonzero;"/>
            </g>
            <g transform="matrix(320,0,0,320,432.32,0)">
                <path d="M0.452,-0.437C0.481,-0.437 0.508,-0.429 0.532,-0.415C0.556,-0.4 0.573,-0.378 0.582,-0.351L0.568,-0.346C0.557,-0.369 0.541,-0.387 0.52,-0.401C0.499,-0.414 0.476,-0.421 0.451,-0.421L0.429,-0.419C0.478,-0.367 0.507,-0.336 0.515,-0.325C0.544,-0.286 0.558,-0.247 0.558,-0.208C0.558,-0.143 0.529,-0.089 0.471,-0.047C0.418,-0.009 0.358,0.01 0.291,0.01C0.232,0.01 0.182,-0.004 0.14,-0.031C0.091,-0.062 0.067,-0.106 0.067,-0.162C0.067,-0.203 0.081,-0.237 0.109,-0.265C0.137,-0.293 0.171,-0.307 0.212,-0.307C0.242,-0.307 0.271,-0.3 0.299,-0.285C0.299,-0.338 0.321,-0.38 0.366,-0.411C0.351,-0.436 0.344,-0.46 0.344,-0.485C0.344,-0.534 0.369,-0.576 0.418,-0.611C0.463,-0.642 0.511,-0.658 0.562,-0.658C0.599,-0.658 0.631,-0.649 0.658,-0.631C0.69,-0.61 0.706,-0.582 0.706,-0.547C0.706,-0.516 0.694,-0.492 0.67,-0.474C0.647,-0.456 0.619,-0.447 0.588,-0.447C0.57,-0.447 0.553,-0.45 0.537,-0.456L0.541,-0.469L0.573,-0.466C0.597,-0.466 0.617,-0.472 0.633,-0.485C0.648,-0.498 0.656,-0.517 0.656,-0.54C0.656,-0.57 0.644,-0.594 0.619,-0.611C0.594,-0.628 0.566,-0.636 0.535,-0.636C0.498,-0.636 0.463,-0.624 0.43,-0.599C0.398,-0.574 0.382,-0.543 0.382,-0.506C0.382,-0.492 0.385,-0.479 0.391,-0.467C0.396,-0.455 0.405,-0.444 0.416,-0.433C0.422,-0.434 0.428,-0.435 0.433,-0.435C0.438,-0.436 0.445,-0.437 0.452,-0.437ZM0.314,-0.275C0.325,-0.267 0.335,-0.258 0.343,-0.247C0.351,-0.237 0.355,-0.226 0.355,-0.214L0.349,-0.195L0.333,-0.188C0.32,-0.188 0.311,-0.196 0.305,-0.212C0.302,-0.221 0.299,-0.235 0.297,-0.252C0.276,-0.278 0.246,-0.291 0.208,-0.291C0.178,-0.291 0.153,-0.28 0.134,-0.258C0.115,-0.236 0.105,-0.209 0.105,-0.178C0.105,-0.127 0.124,-0.086 0.164,-0.054C0.203,-0.022 0.248,-0.006 0.3,-0.006C0.355,-0.006 0.402,-0.021 0.443,-0.051C0.488,-0.084 0.511,-0.127 0.511,-0.18C0.511,-0.213 0.494,-0.252 0.461,-0.298C0.442,-0.323 0.414,-0.356 0.375,-0.397C0.354,-0.384 0.338,-0.367 0.329,-0.347C0.319,-0.326 0.314,-0.302 0.314,-0.275Z" style="fill-rule:nonzero;"/>
            </g>
            <g transform="matrix(320,0,0,320,620.8,0)">
                <path d="M0.013,0.007C-0.002,0.007 -0.016,0.005 -0.027,0.001C-0.038,-0.003 -0.046,-0.011 -0.05,-0.023L-0.044,-0.037C-0.039,-0.038 -0.035,-0.04 -0.03,-0.042C-0.026,-0.042 -0.021,-0.041 -0.015,-0.038C-0.008,-0.035 -0.003,-0.034 0.001,-0.033C0.042,-0.049 0.086,-0.107 0.133,-0.206C0.198,-0.341 0.243,-0.427 0.268,-0.462C0.332,-0.55 0.407,-0.594 0.493,-0.594C0.51,-0.594 0.524,-0.592 0.535,-0.587C0.547,-0.582 0.556,-0.573 0.561,-0.559L0.554,-0.544L0.54,-0.538C0.533,-0.539 0.519,-0.545 0.497,-0.556C0.48,-0.564 0.464,-0.568 0.449,-0.568C0.411,-0.568 0.372,-0.543 0.333,-0.492C0.308,-0.459 0.276,-0.406 0.239,-0.333C0.201,-0.26 0.176,-0.215 0.165,-0.2C0.186,-0.221 0.208,-0.239 0.231,-0.252C0.26,-0.269 0.286,-0.277 0.311,-0.277C0.326,-0.277 0.338,-0.273 0.349,-0.264C0.359,-0.255 0.364,-0.243 0.364,-0.229C0.364,-0.21 0.349,-0.187 0.319,-0.161C0.248,-0.099 0.21,-0.058 0.205,-0.037L0.22,-0.021C0.239,-0.026 0.257,-0.03 0.276,-0.035C0.279,-0.035 0.283,-0.034 0.286,-0.033C0.288,-0.032 0.291,-0.031 0.292,-0.03L0.297,-0.018L0.291,-0.005C0.287,-0.004 0.284,-0.003 0.282,-0.002C0.279,-0.001 0.277,-0 0.275,-0C0.267,-0 0.255,-0 0.24,-0.001C0.225,-0.002 0.213,-0.002 0.206,-0.002L0.171,-0L0.157,-0.017C0.157,-0.036 0.183,-0.068 0.235,-0.112C0.287,-0.156 0.313,-0.19 0.313,-0.215C0.313,-0.236 0.302,-0.246 0.28,-0.246C0.249,-0.246 0.217,-0.23 0.184,-0.199C0.17,-0.186 0.142,-0.154 0.1,-0.102C0.066,-0.061 0.04,-0.035 0.021,-0.024L0.044,-0.021C0.054,-0.021 0.064,-0.023 0.074,-0.026C0.085,-0.03 0.095,-0.035 0.104,-0.042L0.111,-0.034C0.096,-0.022 0.08,-0.012 0.064,-0.005C0.047,0.003 0.03,0.007 0.013,0.007Z" style="fill-rule:nonzero;"/>
            </g>
            <g transform="matrix(320,0,0,320,736.32,0)">
                <path d="M0.063,0.008C0.041,0.008 0.024,0.002 0.013,-0.011C0.003,-0.024 -0.003,-0.042 -0.003,-0.065C-0.003,-0.114 0.023,-0.161 0.076,-0.208C0.13,-0.254 0.181,-0.277 0.231,-0.277C0.241,-0.277 0.25,-0.275 0.258,-0.272C0.266,-0.268 0.27,-0.262 0.27,-0.254C0.27,-0.243 0.263,-0.237 0.249,-0.237C0.242,-0.237 0.232,-0.239 0.219,-0.243C0.206,-0.247 0.195,-0.249 0.188,-0.249C0.153,-0.249 0.12,-0.229 0.089,-0.189C0.059,-0.148 0.044,-0.109 0.044,-0.072C0.044,-0.056 0.047,-0.044 0.053,-0.035C0.059,-0.026 0.07,-0.021 0.085,-0.021C0.114,-0.021 0.142,-0.036 0.167,-0.066C0.192,-0.096 0.205,-0.126 0.205,-0.156C0.205,-0.161 0.203,-0.168 0.2,-0.179C0.197,-0.19 0.195,-0.198 0.195,-0.203C0.195,-0.208 0.197,-0.212 0.201,-0.215C0.204,-0.219 0.208,-0.221 0.213,-0.221C0.222,-0.221 0.229,-0.216 0.233,-0.207C0.236,-0.197 0.238,-0.187 0.238,-0.176C0.238,-0.137 0.218,-0.097 0.179,-0.055C0.14,-0.013 0.101,0.008 0.063,0.008Z" style="fill-rule:nonzero;"/>
            </g>
            <g transform="matrix(320,0,0,320,821.44,0)">
                <path d="M-0.207,0.329C-0.227,0.329 -0.241,0.328 -0.25,0.326C-0.27,0.321 -0.28,0.312 -0.28,0.299C-0.28,0.297 -0.279,0.295 -0.278,0.292C-0.276,0.289 -0.274,0.287 -0.273,0.284L-0.257,0.278L-0.224,0.287C-0.189,0.276 -0.14,0.212 -0.078,0.097C0.021,-0.087 0.077,-0.19 0.091,-0.211C0.162,-0.319 0.227,-0.373 0.288,-0.373C0.293,-0.373 0.297,-0.372 0.301,-0.37C0.305,-0.369 0.309,-0.367 0.313,-0.366L0.322,-0.349L0.316,-0.334C0.308,-0.33 0.303,-0.328 0.3,-0.328C0.293,-0.328 0.284,-0.33 0.273,-0.333C0.262,-0.335 0.254,-0.337 0.25,-0.337C0.219,-0.337 0.187,-0.312 0.152,-0.262C0.139,-0.244 0.127,-0.222 0.115,-0.197C0.136,-0.22 0.156,-0.237 0.173,-0.248C0.198,-0.265 0.223,-0.273 0.246,-0.273C0.263,-0.273 0.276,-0.268 0.285,-0.258C0.294,-0.248 0.299,-0.234 0.299,-0.217C0.299,-0.17 0.276,-0.121 0.229,-0.07C0.181,-0.019 0.134,0.006 0.087,0.006C0.085,0.006 0.08,0.004 0.072,0.002C0.064,-0.002 0.059,-0.003 0.058,-0.004L0.046,-0.027L0.052,-0.042L0.067,-0.048L0.08,-0.038C0.08,-0.031 0.082,-0.024 0.086,-0.019C0.089,-0.014 0.095,-0.012 0.103,-0.012C0.135,-0.012 0.168,-0.036 0.201,-0.083C0.234,-0.13 0.251,-0.17 0.251,-0.203C0.251,-0.205 0.249,-0.21 0.246,-0.217C0.243,-0.224 0.242,-0.228 0.242,-0.229L0.219,-0.239C0.172,-0.239 0.125,-0.2 0.078,-0.122C0.037,-0.043 -0.004,0.036 -0.045,0.115C-0.098,0.21 -0.15,0.27 -0.202,0.296C-0.19,0.3 -0.178,0.302 -0.166,0.302C-0.151,0.302 -0.136,0.3 -0.12,0.295C-0.105,0.291 -0.09,0.285 -0.076,0.277L-0.069,0.287C-0.087,0.3 -0.108,0.311 -0.134,0.318C-0.159,0.325 -0.183,0.329 -0.207,0.329Z" style="fill-rule:nonzero;"/>
            </g>
        </g>
        <g transform="matrix(1,0,0,1,27.584,741.867)">
            <g transform="matrix(640,0,0,640,0,0)">
                <path d="M0.737,-0.089C0.737,-0.073 0.74,-0.057 0.745,-0.041C0.746,-0.041 0.749,-0.039 0.755,-0.036C0.767,-0.03 0.774,-0.027 0.775,-0.027C0.788,-0.027 0.799,-0.03 0.808,-0.036C0.818,-0.042 0.828,-0.051 0.837,-0.062L0.848,-0.052C0.833,-0.035 0.818,-0.021 0.803,-0.01C0.784,0.003 0.765,0.01 0.746,0.01C0.727,0.01 0.712,0.004 0.703,-0.008C0.694,-0.02 0.689,-0.036 0.689,-0.055C0.689,-0.08 0.696,-0.119 0.71,-0.171C0.719,-0.202 0.724,-0.226 0.726,-0.241C0.723,-0.24 0.717,-0.239 0.711,-0.239L0.696,-0.239C0.661,-0.239 0.629,-0.245 0.6,-0.258C0.589,-0.235 0.574,-0.213 0.557,-0.191C0.542,-0.172 0.524,-0.152 0.503,-0.131C0.521,-0.128 0.537,-0.126 0.552,-0.126C0.577,-0.126 0.601,-0.13 0.624,-0.138L0.63,-0.124C0.607,-0.114 0.581,-0.109 0.55,-0.109C0.542,-0.109 0.533,-0.11 0.524,-0.111C0.515,-0.112 0.503,-0.113 0.488,-0.116C0.431,-0.069 0.388,-0.036 0.36,-0.017C0.308,0.01 0.251,0.021 0.19,0.018C0.147,0.018 0.111,0.014 0.082,0.005C0.039,-0.008 0.012,-0.029 0,-0.06L0.006,-0.077L0.021,-0.083C0.042,-0.061 0.066,-0.043 0.09,-0.029C0.116,-0.014 0.15,-0.007 0.193,-0.006C0.25,-0.005 0.299,-0.017 0.342,-0.04C0.384,-0.062 0.421,-0.092 0.454,-0.127C0.41,-0.145 0.375,-0.173 0.35,-0.212C0.325,-0.251 0.312,-0.294 0.312,-0.342C0.312,-0.437 0.355,-0.516 0.44,-0.577C0.517,-0.632 0.605,-0.66 0.704,-0.66C0.769,-0.66 0.826,-0.644 0.873,-0.613C0.927,-0.577 0.954,-0.527 0.954,-0.464C0.954,-0.41 0.934,-0.362 0.893,-0.32C0.852,-0.277 0.803,-0.252 0.748,-0.244C0.748,-0.228 0.746,-0.201 0.743,-0.164C0.739,-0.126 0.737,-0.101 0.737,-0.089ZM0.901,-0.462C0.901,-0.519 0.88,-0.564 0.839,-0.597C0.8,-0.628 0.752,-0.643 0.693,-0.643C0.6,-0.643 0.522,-0.611 0.457,-0.547C0.392,-0.484 0.359,-0.405 0.359,-0.312C0.359,-0.275 0.368,-0.241 0.388,-0.209C0.407,-0.177 0.433,-0.155 0.467,-0.142C0.483,-0.163 0.499,-0.186 0.514,-0.211C0.533,-0.244 0.548,-0.268 0.558,-0.284C0.531,-0.307 0.518,-0.335 0.518,-0.37C0.518,-0.415 0.54,-0.448 0.583,-0.468C0.615,-0.483 0.656,-0.49 0.707,-0.49C0.722,-0.503 0.737,-0.515 0.754,-0.525C0.775,-0.537 0.793,-0.543 0.809,-0.543C0.825,-0.543 0.833,-0.537 0.833,-0.524C0.833,-0.505 0.817,-0.492 0.786,-0.483C0.765,-0.477 0.741,-0.474 0.716,-0.474C0.696,-0.453 0.676,-0.419 0.657,-0.371C0.638,-0.324 0.621,-0.291 0.607,-0.272C0.62,-0.266 0.633,-0.262 0.646,-0.259C0.66,-0.256 0.675,-0.255 0.69,-0.255L0.728,-0.258L0.728,-0.264C0.729,-0.272 0.726,-0.281 0.72,-0.291L0.7,-0.3C0.689,-0.298 0.678,-0.296 0.667,-0.294C0.656,-0.294 0.651,-0.3 0.651,-0.311L0.66,-0.328C0.667,-0.33 0.675,-0.332 0.682,-0.334C0.701,-0.334 0.716,-0.327 0.727,-0.314C0.738,-0.3 0.744,-0.283 0.747,-0.262C0.792,-0.273 0.829,-0.297 0.858,-0.335C0.886,-0.372 0.901,-0.415 0.901,-0.462ZM0.672,-0.471C0.639,-0.471 0.609,-0.46 0.584,-0.438C0.559,-0.416 0.546,-0.388 0.546,-0.355C0.546,-0.336 0.553,-0.317 0.567,-0.3C0.579,-0.321 0.594,-0.345 0.611,-0.369C0.628,-0.395 0.653,-0.429 0.688,-0.473C0.681,-0.472 0.675,-0.472 0.672,-0.471ZM0.806,-0.517C0.806,-0.522 0.803,-0.525 0.796,-0.525C0.786,-0.525 0.775,-0.521 0.762,-0.513C0.753,-0.508 0.744,-0.5 0.733,-0.49C0.745,-0.49 0.76,-0.492 0.778,-0.497C0.797,-0.502 0.806,-0.508 0.806,-0.517Z" style="fill-rule:nonzero;"/>
            </g>
            <g transform="matrix(640,0,0,640,572.16,0)">
                <path d="M0.063,0.008C0.041,0.008 0.024,0.002 0.013,-0.011C0.003,-0.024 -0.003,-0.042 -0.003,-0.065C-0.003,-0.114 0.023,-0.161 0.076,-0.208C0.13,-0.254 0.181,-0.277 0.231,-0.277C0.241,-0.277 0.25,-0.275 0.258,-0.272C0.266,-0.268 0.27,-0.262 0.27,-0.254C0.27,-0.243 0.263,-0.237 0.249,-0.237C0.242,-0.237 0.232,-0.239 0.219,-0.243C0.206,-0.247 0.195,-0.249 0.188,-0.249C0.153,-0.249 0.12,-0.229 0.089,-0.189C0.059,-0.148 0.044,-0.109 0.044,-0.072C0.044,-0.056 0.047,-0.044 0.053,-0.035C0.059,-0.026 0.07,-0.021 0.085,-0.021C0.114,-0.021 0.142,-0.036 0.167,-0.066C0.192,-0.096 0.205,-0.126 0.205,-0.156C0.205,-0.161 0.203,-0.168 0.2,-0.179C0.197,-0.19 0.195,-0.198 0.195,-0.203C0.195,-0.208 0.197,-0.212 0.201,-0.215C0.204,-0.219 0.208,-0.221 0.213,-0.221C0.222,-0.221 0.229,-0.216 0.233,-0.207C0.236,-0.197 0.238,-0.187 0.238,-0.176C0.238,-0.137 0.218,-0.097 0.179,-0.055C0.14,-0.013 0.101,0.008 0.063,0.008Z" style="fill-rule:nonzero;"/>
            </g>
            <g transform="matrix(640,0,0,640,742.4,0)">
                <path d="M-0.029,-0C-0.01,-0.025 0.015,-0.063 0.048,-0.115C0.083,-0.171 0.105,-0.209 0.113,-0.23L0.105,-0.237C0.094,-0.234 0.084,-0.229 0.073,-0.222C0.067,-0.218 0.058,-0.211 0.045,-0.2L0.038,-0.211C0.058,-0.23 0.077,-0.245 0.095,-0.256C0.113,-0.266 0.127,-0.271 0.137,-0.271L0.153,-0.266L0.159,-0.252C0.159,-0.243 0.158,-0.236 0.154,-0.229C0.151,-0.222 0.146,-0.213 0.139,-0.202C0.16,-0.219 0.181,-0.233 0.204,-0.246C0.235,-0.263 0.26,-0.272 0.277,-0.272C0.298,-0.272 0.309,-0.262 0.309,-0.243C0.309,-0.237 0.308,-0.231 0.306,-0.224C0.304,-0.217 0.302,-0.212 0.301,-0.209C0.326,-0.228 0.347,-0.243 0.363,-0.252C0.389,-0.267 0.413,-0.274 0.434,-0.274C0.449,-0.274 0.461,-0.27 0.471,-0.263C0.481,-0.255 0.486,-0.244 0.486,-0.229C0.486,-0.206 0.46,-0.173 0.407,-0.129C0.354,-0.085 0.328,-0.054 0.328,-0.035C0.328,-0.024 0.333,-0.018 0.342,-0.018C0.348,-0.018 0.36,-0.021 0.377,-0.027C0.386,-0.03 0.393,-0.032 0.398,-0.032L0.415,-0.027L0.42,-0.015C0.42,-0.007 0.408,-0.002 0.383,-0.001C0.358,0.001 0.339,0.002 0.326,0.002L0.298,0.002C0.288,0.002 0.283,-0.003 0.283,-0.014C0.283,-0.036 0.308,-0.068 0.359,-0.111C0.411,-0.153 0.436,-0.186 0.436,-0.211C0.436,-0.22 0.433,-0.228 0.426,-0.234C0.419,-0.24 0.411,-0.243 0.401,-0.243C0.363,-0.243 0.318,-0.211 0.267,-0.148C0.228,-0.099 0.196,-0.05 0.173,-0L0.123,-0C0.139,-0.021 0.164,-0.059 0.197,-0.113C0.234,-0.173 0.255,-0.212 0.26,-0.229L0.255,-0.238L0.244,-0.241C0.198,-0.241 0.145,-0.196 0.084,-0.107C0.061,-0.074 0.041,-0.039 0.022,-0L-0.029,-0Z" style="fill-rule:nonzero;"/>
            </g>
            <g transform="matrix(640,0,0,640,1054.08,0)">
                <path d="M0.204,-0.039C0.204,-0.032 0.207,-0.028 0.213,-0.028C0.219,-0.028 0.229,-0.033 0.244,-0.044C0.255,-0.052 0.264,-0.06 0.272,-0.068L0.279,-0.056C0.265,-0.042 0.249,-0.029 0.231,-0.017C0.208,-0.002 0.189,0.006 0.175,0.006C0.159,0.006 0.151,-0.001 0.151,-0.014C0.151,-0.021 0.152,-0.028 0.155,-0.035C0.158,-0.042 0.161,-0.05 0.166,-0.06C0.149,-0.043 0.133,-0.029 0.116,-0.018C0.093,-0.003 0.073,0.005 0.055,0.005C0.04,0.005 0.028,0 0.019,-0.009C0.01,-0.018 0.006,-0.031 0.006,-0.047C0.006,-0.1 0.036,-0.151 0.097,-0.202C0.158,-0.252 0.215,-0.277 0.268,-0.277C0.283,-0.277 0.298,-0.275 0.313,-0.271C0.328,-0.266 0.336,-0.259 0.336,-0.248L0.33,-0.236L0.317,-0.231C0.316,-0.231 0.301,-0.236 0.273,-0.245C0.259,-0.25 0.247,-0.252 0.237,-0.252C0.198,-0.252 0.159,-0.231 0.118,-0.189C0.077,-0.147 0.057,-0.106 0.057,-0.067C0.057,-0.058 0.059,-0.05 0.065,-0.043C0.07,-0.036 0.077,-0.033 0.086,-0.033C0.115,-0.033 0.148,-0.056 0.187,-0.103C0.213,-0.134 0.238,-0.171 0.261,-0.212L0.3,-0.212C0.283,-0.185 0.267,-0.159 0.252,-0.132C0.22,-0.078 0.204,-0.047 0.204,-0.039Z" style="fill-rule:nonzero;"/>
            </g>
        </g>
        <g transform="matrix(1,0,0,1,30.316,741.867)">
            <g transform="matrix(640,0,0,640,0,0)">
                <path d="M0.737,-0.089C0.737,-0.073 0.74,-0.057 0.745,-0.041C0.746,-0.041 0.749,-0.039 0.755,-0.036C0.767,-0.03 0.774,-0.027 0.775,-0.027C0.788,-0.027 0.799,-0.03 0.808,-0.036C0.818,-0.042 0.828,-0.051 0.837,-0.062L0.848,-0.052C0.833,-0.035 0.818,-0.021 0.803,-0.01C0.784,0.003 0.765,0.01 0.746,0.01C0.727,0.01 0.712,0.004 0.703,-0.008C0.694,-0.02 0.689,-0.036 0.689,-0.055C0.689,-0.08 0.696,-0.119 0.71,-0.171C0.719,-0.202 0.724,-0.226 0.726,-0.241C0.723,-0.24 0.717,-0.239 0.711,-0.239L0.696,-0.239C0.661,-0.239 0.629,-0.245 0.6,-0.258C0.589,-0.235 0.574,-0.213 0.557,-0.191C0.542,-0.172 0.524,-0.152 0.503,-0.131C0.521,-0.128 0.537,-0.126 0.552,-0.126C0.577,-0.126 0.601,-0.13 0.624,-0.138L0.63,-0.124C0.607,-0.114 0.581,-0.109 0.55,-0.109C0.542,-0.109 0.533,-0.11 0.524,-0.111C0.515,-0.112 0.503,-0.113 0.488,-0.116C0.431,-0.069 0.388,-0.036 0.36,-0.017C0.308,0.01 0.251,0.021 0.19,0.018C0.147,0.018 0.111,0.014 0.082,0.005C0.039,-0.008 0.012,-0.029 0,-0.06L0.006,-0.077L0.021,-0.083C0.042,-0.061 0.066,-0.043 0.09,-0.029C0.116,-0.014 0.15,-0.007 0.193,-0.006C0.25,-0.005 0.299,-0.017 0.342,-0.04C0.384,-0.062 0.421,-0.092 0.454,-0.127C0.41,-0.145 0.375,-0.173 0.35,-0.212C0.325,-0.251 0.312,-0.294 0.312,-0.342C0.312,-0.437 0.355,-0.516 0.44,-0.577C0.517,-0.632 0.605,-0.66 0.704,-0.66C0.769,-0.66 0.826,-0.644 0.873,-0.613C0.927,-0.577 0.954,-0.527 0.954,-0.464C0.954,-0.41 0.934,-0.362 0.893,-0.32C0.852,-0.277 0.803,-0.252 0.748,-0.244C0.748,-0.228 0.746,-0.201 0.743,-0.164C0.739,-0.126 0.737,-0.101 0.737,-0.089ZM0.901,-0.462C0.901,-0.519 0.88,-0.564 0.839,-0.597C0.8,-0.628 0.752,-0.643 0.693,-0.643C0.6,-0.643 0.522,-0.611 0.457,-0.547C0.392,-0.484 0.359,-0.405 0.359,-0.312C0.359,-0.275 0.368,-0.241 0.388,-0.209C0.407,-0.177 0.433,-0.155 0.467,-0.142C0.483,-0.163 0.499,-0.186 0.514,-0.211C0.533,-0.244 0.548,-0.268 0.558,-0.284C0.531,-0.307 0.518,-0.335 0.518,-0.37C0.518,-0.415 0.54,-0.448 0.583,-0.468C0.615,-0.483 0.656,-0.49 0.707,-0.49C0.722,-0.503 0.737,-0.515 0.754,-0.525C0.775,-0.537 0.793,-0.543 0.809,-0.543C0.825,-0.543 0.833,-0.537 0.833,-0.524C0.833,-0.505 0.817,-0.492 0.786,-0.483C0.765,-0.477 0.741,-0.474 0.716,-0.474C0.696,-0.453 0.676,-0.419 0.657,-0.371C0.638,-0.324 0.621,-0.291 0.607,-0.272C0.62,-0.266 0.633,-0.262 0.646,-0.259C0.66,-0.256 0.675,-0.255 0.69,-0.255L0.728,-0.258L0.728,-0.264C0.729,-0.272 0.726,-0.281 0.72,-0.291L0.7,-0.3C0.689,-0.298 0.678,-0.296 0.667,-0.294C0.656,-0.294 0.651,-0.3 0.651,-0.311L0.66,-0.328C0.667,-0.33 0.675,-0.332 0.682,-0.334C0.701,-0.334 0.716,-0.327 0.727,-0.314C0.738,-0.3 0.744,-0.283 0.747,-0.262C0.792,-0.273 0.829,-0.297 0.858,-0.335C0.886,-0.372 0.901,-0.415 0.901,-0.462ZM0.672,-0.471C0.639,-0.471 0.609,-0.46 0.584,-0.438C0.559,-0.416 0.546,-0.388 0.546,-0.355C0.546,-0.336 0.553,-0.317 0.567,-0.3C0.579,-0.321 0.594,-0.345 0.611,-0.369C0.628,-0.395 0.653,-0.429 0.688,-0.473C0.681,-0.472 0.675,-0.472 0.672,-0.471ZM0.806,-0.517C0.806,-0.522 0.803,-0.525 0.796,-0.525C0.786,-0.525 0.775,-0.521 0.762,-0.513C0.753,-0.508 0.744,-0.5 0.733,-0.49C0.745,-0.49 0.76,-0.492 0.778,-0.497C0.797,-0.502 0.806,-0.508 0.806,-0.517Z" style="fill-rule:nonzero;"/>
            </g>
            <g transform="matrix(640,0,0,640,572.16,0)">
                <path d="M0.063,0.008C0.041,0.008 0.024,0.002 0.013,-0.011C0.003,-0.024 -0.003,-0.042 -0.003,-0.065C-0.003,-0.114 0.023,-0.161 0.076,-0.208C0.13,-0.254 0.181,-0.277 0.231,-0.277C0.241,-0.277 0.25,-0.275 0.258,-0.272C0.266,-0.268 0.27,-0.262 0.27,-0.254C0.27,-0.243 0.263,-0.237 0.249,-0.237C0.242,-0.237 0.232,-0.239 0.219,-0.243C0.206,-0.247 0.195,-0.249 0.188,-0.249C0.153,-0.249 0.12,-0.229 0.089,-0.189C0.059,-0.148 0.044,-0.109 0.044,-0.072C0.044,-0.056 0.047,-0.044 0.053,-0.035C0.059,-0.026 0.07,-0.021 0.085,-0.021C0.114,-0.021 0.142,-0.036 0.167,-0.066C0.192,-0.096 0.205,-0.126 0.205,-0.156C0.205,-0.161 0.203,-0.168 0.2,-0.179C0.197,-0.19 0.195,-0.198 0.195,-0.203C0.195,-0.208 0.197,-0.212 0.201,-0.215C0.204,-0.219 0.208,-0.221 0.213,-0.221C0.222,-0.221 0.229,-0.216 0.233,-0.207C0.236,-0.197 0.238,-0.187 0.238,-0.176C0.238,-0.137 0.218,-0.097 0.179,-0.055C0.14,-0.013 0.101,0.008 0.063,0.008Z" style="fill-rule:nonzero;"/>
            </g>
            <g transform="matrix(640,0,0,640,742.4,0)">
                <path d="M-0.029,-0C-0.01,-0.025 0.015,-0.063 0.048,-0.115C0.083,-0.171 0.105,-0.209 0.113,-0.23L0.105,-0.237C0.094,-0.234 0.084,-0.229 0.073,-0.222C0.067,-0.218 0.058,-0.211 0.045,-0.2L0.038,-0.211C0.058,-0.23 0.077,-0.245 0.095,-0.256C0.113,-0.266 0.127,-0.271 0.137,-0.271L0.153,-0.266L0.159,-0.252C0.159,-0.243 0.158,-0.236 0.154,-0.229C0.151,-0.222 0.146,-0.213 0.139,-0.202C0.16,-0.219 0.181,-0.233 0.204,-0.246C0.235,-0.263 0.26,-0.272 0.277,-0.272C0.298,-0.272 0.309,-0.262 0.309,-0.243C0.309,-0.237 0.308,-0.231 0.306,-0.224C0.304,-0.217 0.302,-0.212 0.301,-0.209C0.326,-0.228 0.347,-0.243 0.363,-0.252C0.389,-0.267 0.413,-0.274 0.434,-0.274C0.449,-0.274 0.461,-0.27 0.471,-0.263C0.481,-0.255 0.486,-0.244 0.486,-0.229C0.486,-0.206 0.46,-0.173 0.407,-0.129C0.354,-0.085 0.328,-0.054 0.328,-0.035C0.328,-0.024 0.333,-0.018 0.342,-0.018C0.348,-0.018 0.36,-0.021 0.377,-0.027C0.386,-0.03 0.393,-0.032 0.398,-0.032L0.415,-0.027L0.42,-0.015C0.42,-0.007 0.408,-0.002 0.383,-0.001C0.358,0.001 0.339,0.002 0.326,0.002L0.298,0.002C0.288,0.002 0.283,-0.003 0.283,-0.014C0.283,-0.036 0.308,-0.068 0.359,-0.111C0.411,-0.153 0.436,-0.186 0.436,-0.211C0.436,-0.22 0.433,-0.228 0.426,-0.234C0.419,-0.24 0.411,-0.243 0.401,-0.243C0.363,-0.243 0.318,-0.211 0.267,-0.148C0.228,-0.099 0.196,-0.05 0.173,-0L0.123,-0C0.139,-0.021 0.164,-0.059 0.197,-0.113C0.234,-0.173 0.255,-0.212 0.26,-0.229L0.255,-0.238L0.244,-0.241C0.198,-0.241 0.145,-0.196 0.084,-0.107C0.061,-0.074 0.041,-0.039 0.022,-0L-0.029,-0Z" style="fill-rule:nonzero;"/>
            </g>
            <g transform="matrix(640,0,0,640,1054.08,0)">
                <path d="M0.204,-0.039C0.204,-0.032 0.207,-0.028 0.213,-0.028C0.219,-0.028 0.229,-0.033 0.244,-0.044C0.255,-0.052 0.264,-0.06 0.272,-0.068L0.279,-0.056C0.265,-0.042 0.249,-0.029 0.231,-0.017C0.208,-0.002 0.189,0.006 0.175,0.006C0.159,0.006 0.151,-0.001 0.151,-0.014C0.151,-0.021 0.152,-0.028 0.155,-0.035C0.158,-0.042 0.161,-0.05 0.166,-0.06C0.149,-0.043 0.133,-0.029 0.116,-0.018C0.093,-0.003 0.073,0.005 0.055,0.005C0.04,0.005 0.028,0 0.019,-0.009C0.01,-0.018 0.006,-0.031 0.006,-0.047C0.006,-0.1 0.036,-0.151 0.097,-0.202C0.158,-0.252 0.215,-0.277 0.268,-0.277C0.283,-0.277 0.298,-0.275 0.313,-0.271C0.328,-0.266 0.336,-0.259 0.336,-0.248L0.33,-0.236L0.317,-0.231C0.316,-0.231 0.301,-0.236 0.273,-0.245C0.259,-0.25 0.247,-0.252 0.237,-0.252C0.198,-0.252 0.159,-0.231 0.118,-0.189C0.077,-0.147 0.057,-0.106 0.057,-0.067C0.057,-0.058 0.059,-0.05 0.065,-0.043C0.07,-0.036 0.077,-0.033 0.086,-0.033C0.115,-0.033 0.148,-0.056 0.187,-0.103C0.213,-0.134 0.238,-0.171 0.261,-0.212L0.3,-0.212C0.283,-0.185 0.267,-0.159 0.252,-0.132C0.22,-0.078 0.204,-0.047 0.204,-0.039Z" style="fill-rule:nonzero;"/>
            </g>
        </g>
    </g>
</svg>
