<?xml version="1.0" encoding="UTF-8" standalone="no"?><!DOCTYPE svg PUBLIC "-//W3C//DTD SVG 1.1//EN" "http://www.w3.org/Graphics/SVG/1.1/DTD/svg11.dtd"><svg width="100%" height="100%" viewBox="0 0 1325 1325" version="1.1" xmlns="http://www.w3.org/2000/svg" xmlns:xlink="http://www.w3.org/1999/xlink" xml:space="preserve" xmlns:serif="http://www.serif.com/" style="fill-rule:evenodd;clip-rule:evenodd;stroke-linejoin:round;stroke-miterlimit:2;"><g id="Objects"><g><path d="M980.115,940.53c-2.267,-3.115 -4.717,-6.15 -7.434,-8.869c-9.709,-9.785 -22.221,-16.493 -35.334,-20.41c-17.775,-5.302 -36.817,-4.989 -54.927,-1.745c-11.957,2.12 -23.944,5.486 -35.304,8.984c-28.831,9.061 -104.547,32.858 -132.37,41.617c-31.453,9.445 -67.644,24.575 -98.735,10.005c-9.311,-4.465 -16.845,-11.919 -19.894,-21.916c-4.866,-15.87 -0.273,-34.609 9.18,-48.287c7.151,-10.227 20.125,-25.174 49.198,-46.824c53.63,-39.936 150.083,-86.747 247.321,-184.574c37.298,-37.525 66.959,-82.809 89.234,-131.025c24.818,-53.794 39.248,-115.232 25.169,-174.294c-5.889,-25.324 -17.247,-47.355 -32.454,-65.798c12.564,-28.176 17.957,-66.727 15.178,-97.774c-0.536,-5.986 -8.234,-8.029 -11.772,-3.17c-18.698,25.681 -48.25,43.399 -79.753,47.571c-39.484,-14.76 -84.318,-17.273 -125.945,-5.841c-34.159,9.331 -64.98,28.995 -91.568,51.764c-10.713,9.153 -20.873,18.996 -30.609,29.144c-8.466,-8.805 -17.294,-17.304 -26.58,-25.275c-24.132,-20.761 -51.663,-38.656 -81.814,-49.435c-41.362,-14.417 -87.9,-14.388 -129.516,-0.551c-35.109,-1.584 -68.891,-20.381 -89.405,-48.819c-3.516,-4.875 -11.224,-2.866 -11.786,3.118c-3.11,33.109 3.042,74.796 17.338,103.352c-18.738,24.099 -29.713,54.014 -32.774,84.226c-4.589,44.223 5.557,88.6 22.368,129.254c4.128,10.37 9.671,21 14.564,31.035c2.474,4.538 8.386,15.45 11.051,19.886c3.093,4.999 6.767,11.167 9.898,16.123c3.984,5.796 8.604,13.075 12.726,18.737c3.202,4.249 10.165,14.127 13.5,18.123c4.587,5.666 9.408,12.077 14.198,17.519l9.786,11.382l1.226,1.418c49.337,54.938 107.874,101.428 169.211,142.071c8.981,5.382 17.003,-6.914 8.886,-13.011c-40.802,-28.849 -79.571,-60.146 -115.39,-94.785c-5.659,-5.752 -12.321,-12.205 -17.854,-18.062c-5.657,-6.117 -14.214,-15.093 -19.499,-21.415c-2.171,-2.505 -6.165,-7.097 -8.296,-9.554l-1.137,-1.403l-9.067,-11.236c-5.192,-6.347 -10.266,-13.546 -15.239,-20.092c-3.792,-5.553 -10.606,-15.151 -14.089,-20.83c-1.895,-3.044 -5.735,-9.093 -7.631,-12.143c-2.78,-4.788 -6.121,-10.696 -8.881,-15.531c-0.439,-0.779 -1.337,-2.323 -1.705,-3.14c-0.973,-2.089 -7.396,-14.132 -8.114,-15.894c-2.112,-4.697 -5.262,-11.475 -7.386,-16.202c-13.631,-32.067 -23.011,-66.561 -23.637,-101.476c-0.741,-35.178 9.099,-71.379 33.086,-97.721c35.487,-39.06 93.632,-53.781 144.7,-43.638c35.157,6.836 65.877,27.179 92.026,50.994c6.751,6.185 13.265,12.714 19.577,19.528c7.076,7.421 13.492,15.666 20.464,23.394c8.972,8.348 23.013,7.842 31.361,-1.13c20.427,-22.832 41.941,-44.629 67.141,-61.828c11.998,-8.074 24.297,-15.036 37.65,-20.196c47.671,-18.059 105.393,-10.97 146.556,19.068c71.471,52.443 54.785,150.685 20.174,220.482c-22.413,45.888 -53.642,87.187 -88.978,124.015c-3.123,3.131 -7.765,7.948 -10.875,11.049c-83.937,83.706 -213.909,143.687 -259.591,195.079c-18.953,21.322 -33.486,46.732 -33.693,75.912c-0.445,52.535 41.269,83.034 91.155,81.487c11.935,-0.4 23.882,-2.532 35.327,-5.56c15.667,-4.165 30.223,-9.664 45.22,-14.875c27.837,-9.8 101.939,-35.843 130.704,-45.954c25.82,-8.858 54.288,-17.347 80.792,-7.402c9.942,3.775 19.097,10.072 24.665,19.25c9.11,15.172 7.299,34.462 0.79,50.436c-3.972,9.639 -9.903,18.421 -16.512,26.45c-8.151,9.864 -17.765,18.995 -27.77,28.169l-16.448,-41.163c-2.954,-7.395 -13.676,-6.579 -15.486,1.174l-22.924,98.244c-1.371,5.863 3.877,11.126 9.746,9.781l98.336,-22.521c7.76,-1.776 8.617,-12.494 1.235,-15.481l-39.482,-15.964c10.007,-8.605 20.111,-17.619 29.359,-28.052c10.52,-11.892 19.578,-25.475 24.602,-40.633c7.071,-20.71 7.04,-44.398 -4.148,-63.803c-0.868,-1.395 -2.003,-3.16 -2.892,-4.541Z" style="fill:#b22626;fill-rule:nonzero;"/></g></g><g transform="matrix(320,0,0,320,1110.784163,964.302364)"></g><text x="189.184px" y="964.302px" style="font-family:'ArDecode', 'Ar Decode';font-weight:500;font-size:320px;">Sex Shop</text><g transform="matrix(320,0,0,320,1113.515668,964.302364)"></g><text x="191.916px" y="964.302px" style="font-family:'ArDecode', 'Ar Decode';font-weight:500;font-size:320px;">Sex Shop</text><g transform="matrix(320,0,0,320,1113.515668,964.302364)"></g><text x="191.916px" y="964.302px" style="font-family:'ArDecode', 'Ar Decode';font-weight:500;font-size:320px;">Sex Shop</text><g transform="matrix(640,0,0,640,1298.624163,741.866809)"></g><text x="27.584px" y="741.867px" style="font-family:'ArDecode', 'Ar Decode';font-weight:500;font-size:640px;">Roma</text><g transform="matrix(640,0,0,640,1301.355668,741.866809)"></g><text x="30.316px" y="741.867px" style="font-family:'ArDecode', 'Ar Decode';font-weight:500;font-size:640px;">Roma</text></svg>